<svg xmlns="http://www.w3.org/2000/svg" xmlns:xlink="http://www.w3.org/1999/xlink" width="500" zoomAndPan="magnify" viewBox="0 0 375 374.999991" height="500" preserveAspectRatio="xMidYMid meet" version="1.0"><defs><clipPath id="bfbd65f40f"><path d="M 68.609375 26.441406 L 306.359375 26.441406 L 306.359375 348.191406 L 68.609375 348.191406 Z M 68.609375 26.441406 " clip-rule="nonzero"/></clipPath></defs><rect x="-37.5" width="450" fill="#ffffff" y="-37.499999" height="449.999989" fill-opacity="1"/><rect x="-37.5" width="450" fill="#001f3f" y="-37.499999" height="449.999989" fill-opacity="1"/><g clip-path="url(#bfbd65f40f)"><path fill="#41c6ff" d="M 294.472656 157.027344 L 278.042969 157.027344 L 278.042969 117.085938 C 278.109375 67.09375 237.457031 26.441406 187.464844 26.441406 C 137.472656 26.441406 96.820312 67.09375 96.820312 117.085938 L 96.820312 157.027344 L 80.457031 157.027344 C 73.953125 157.027344 68.667969 162.308594 68.667969 168.816406 L 68.667969 336.832031 C 68.667969 343.273438 73.953125 348.554688 80.457031 348.554688 L 294.535156 348.554688 C 301.042969 348.554688 306.324219 343.273438 306.324219 336.765625 L 306.324219 168.816406 C 306.261719 162.308594 300.976562 157.027344 294.472656 157.027344 Z M 120.402344 117.085938 C 120.402344 80.105469 150.484375 50.019531 187.464844 50.019531 C 224.445312 50.019531 254.527344 80.105469 254.527344 117.085938 L 254.527344 157.027344 L 120.402344 157.027344 Z M 199.253906 261.261719 L 199.253906 292.25 C 199.253906 298.757812 193.972656 304.039062 187.464844 304.039062 C 180.957031 304.039062 175.675781 298.757812 175.675781 292.25 L 175.675781 261.261719 C 167.558594 257.011719 162.019531 248.507812 162.019531 238.78125 C 162.019531 224.734375 173.421875 213.398438 187.398438 213.398438 C 201.445312 213.398438 212.78125 224.800781 212.78125 238.78125 C 212.910156 248.507812 207.371094 257.011719 199.253906 261.261719 Z M 199.253906 261.261719 " fill-opacity="1" fill-rule="nonzero"/></g></svg>