<svg xmlns="http://www.w3.org/2000/svg" xmlns:xlink="http://www.w3.org/1999/xlink" width="500" zoomAndPan="magnify" viewBox="0 0 375 374.999991" height="500" preserveAspectRatio="xMidYMid meet" version="1.0"><defs><clipPath id="966b0b11e1"><path d="M 64 26.4375 L 311 26.4375 L 311 348.9375 L 64 348.9375 Z M 64 26.4375 " clip-rule="nonzero"/></clipPath></defs><rect x="-37.5" width="450" fill="#ffffff" y="-37.499999" height="449.999989" fill-opacity="1"/><rect x="-37.5" width="450" fill="#001f3f" y="-37.499999" height="449.999989" fill-opacity="1"/><g clip-path="url(#966b0b11e1)"><path fill="#41c6ff" d="M 160.730469 26.734375 C 151.910156 26.734375 144.625 33.851562 144.625 42.8125 C 144.625 49.902344 149.148438 55.734375 155.34375 57.996094 L 155.371094 164.976562 C 124.140625 208.042969 100.277344 245.890625 70.300781 292.609375 C 62.570312 304.640625 62.511719 318.734375 68.597656 329.648438 C 74.652344 340.535156 86.851562 348.207031 102.117188 348.265625 C 159.027344 348.265625 215.910156 348.265625 272.847656 348.265625 C 288.140625 348.207031 300.339844 340.535156 306.394531 329.648438 C 312.480469 318.734375 312.421875 304.640625 304.691406 292.609375 C 274.714844 245.890625 250.851562 207.984375 219.59375 164.890625 L 219.648438 58.023438 C 225.871094 55.761719 230.367188 49.875 230.367188 42.8125 C 230.367188 33.851562 223.082031 26.734375 214.261719 26.734375 Z M 166.0625 58.886719 L 208.929688 58.886719 L 208.929688 166.707031 C 208.929688 167.824219 209.292969 168.941406 209.964844 169.859375 L 295.675781 298.386719 C 301.398438 307.292969 301.175781 316.949219 297.015625 324.402344 C 292.941406 331.769531 284.625 337.492188 272.820312 337.546875 C 215.9375 337.546875 159.054688 337.546875 102.144531 337.546875 C 90.367188 337.492188 82.050781 331.769531 77.976562 324.402344 C 73.871094 317.0625 73.566406 307.292969 79.316406 298.386719 L 165.027344 169.859375 C 165.699219 168.941406 166.0625 167.824219 166.0625 166.707031 Z M 220.988281 204.078125 C 205.386719 205.222656 197.402344 208.183594 187.859375 211.363281 C 177.753906 214.710938 165.894531 218.171875 143.621094 219.289062 C 125.421875 246.222656 108.285156 273.074219 88.328125 304.164062 C 84.535156 310.054688 84.953125 314.910156 87.324219 319.183594 C 89.726562 323.480469 93.746094 326.773438 102.144531 326.828125 C 159.054688 326.828125 215.910156 326.828125 272.789062 326.828125 C 281.246094 326.800781 285.265625 323.480469 287.667969 319.183594 C 290.039062 314.910156 290.457031 310.054688 286.691406 304.164062 C 262.992188 267.269531 243.289062 236.289062 220.988281 204.078125 Z M 208.929688 219.652344 C 217.75 219.652344 225.007812 226.910156 225.007812 235.730469 C 225.007812 244.519531 217.75 251.832031 208.929688 251.832031 C 200.140625 251.832031 192.828125 244.519531 192.828125 235.730469 C 192.828125 226.910156 200.140625 219.652344 208.929688 219.652344 Z M 208.929688 230.371094 C 205.917969 230.371094 203.574219 232.6875 203.574219 235.730469 C 203.574219 238.742188 205.917969 241.117188 208.929688 241.117188 C 211.972656 241.117188 214.289062 238.742188 214.289062 235.730469 C 214.289062 232.6875 211.972656 230.371094 208.929688 230.371094 Z M 168.710938 246.445312 C 179.011719 246.445312 187.441406 254.902344 187.441406 265.203125 C 187.441406 275.472656 179.011719 283.957031 168.710938 283.957031 C 158.414062 283.957031 149.957031 275.472656 149.957031 265.203125 C 149.957031 254.902344 158.414062 246.445312 168.710938 246.445312 Z M 168.710938 257.164062 C 164.21875 257.164062 160.675781 260.679688 160.675781 265.203125 C 160.675781 269.695312 164.21875 273.214844 168.710938 273.214844 C 173.207031 273.214844 176.722656 269.695312 176.722656 265.203125 C 176.722656 260.679688 173.207031 257.164062 168.710938 257.164062 Z M 214.234375 273.214844 C 226.011719 273.214844 235.667969 282.898438 235.667969 294.675781 C 235.667969 306.425781 226.011719 316.113281 214.234375 316.113281 C 202.457031 316.113281 192.800781 306.425781 192.800781 294.675781 C 192.800781 282.898438 202.457031 273.214844 214.234375 273.214844 Z M 214.234375 283.957031 C 208.261719 283.957031 203.515625 288.675781 203.515625 294.675781 C 203.515625 300.648438 208.261719 305.394531 214.234375 305.394531 C 220.234375 305.394531 224.953125 300.648438 224.953125 294.675781 C 224.953125 288.675781 220.234375 283.957031 214.234375 283.957031 " fill-opacity="1" fill-rule="nonzero"/></g></svg>