<svg xmlns="http://www.w3.org/2000/svg" xmlns:xlink="http://www.w3.org/1999/xlink" width="500" zoomAndPan="magnify" viewBox="0 0 375 374.999991" height="500" preserveAspectRatio="xMidYMid meet" version="1.0"><defs><clipPath id="d53c7def11"><path d="M 26.589844 28 L 343 28 L 343 347 L 26.589844 347 Z M 26.589844 28 " clip-rule="nonzero"/></clipPath></defs><rect x="-37.5" width="450" fill="#ffffff" y="-37.499999" height="449.999989" fill-opacity="1"/><rect x="-37.5" width="450" fill="#001f3f" y="-37.499999" height="449.999989" fill-opacity="1"/><g clip-path="url(#d53c7def11)"><path fill="#41c6ff" d="M 26.632812 155.6875 C 26.628906 154.386719 26.652344 153.089844 26.710938 151.792969 C 26.769531 150.496094 26.859375 149.199219 26.980469 147.910156 C 27.101562 146.617188 27.253906 145.328125 27.4375 144.042969 C 27.621094 142.757812 27.839844 141.476562 28.085938 140.203125 C 28.332031 138.925781 28.613281 137.660156 28.921875 136.398438 C 29.230469 135.136719 29.570312 133.886719 29.941406 132.640625 C 30.3125 131.398438 30.714844 130.164062 31.148438 128.9375 C 31.578125 127.714844 32.039062 126.5 32.53125 125.296875 C 33.023438 124.097656 33.542969 122.90625 34.09375 121.730469 C 34.644531 120.554688 35.222656 119.394531 35.828125 118.246094 C 36.4375 117.097656 37.070312 115.964844 37.734375 114.847656 C 38.394531 113.730469 39.085938 112.632812 39.800781 111.550781 C 40.519531 110.46875 41.261719 109.402344 42.03125 108.355469 C 42.800781 107.308594 43.59375 106.285156 44.414062 105.277344 C 45.230469 104.269531 46.074219 103.28125 46.945312 102.316406 C 47.8125 101.351562 48.703125 100.40625 49.617188 99.484375 C 50.53125 98.5625 51.46875 97.664062 52.425781 96.789062 C 53.382812 95.914062 54.363281 95.058594 55.363281 94.234375 C 56.363281 93.40625 57.382812 92.601562 58.421875 91.824219 C 59.460938 91.046875 60.519531 90.292969 61.597656 89.570312 C 62.671875 88.84375 63.765625 88.144531 64.878906 87.472656 C 65.988281 86.800781 67.117188 86.15625 68.257812 85.539062 C 69.402344 84.921875 70.558594 84.332031 71.730469 83.773438 C 72.902344 83.214844 74.085938 82.683594 75.285156 82.183594 C 76.480469 81.679688 77.691406 81.207031 78.910156 80.765625 C 80.132812 80.324219 81.363281 79.910156 82.601562 79.53125 C 83.84375 79.148438 85.09375 78.796875 86.351562 78.476562 C 87.609375 78.15625 88.875 77.867188 90.148438 77.609375 C 91.421875 77.351562 92.699219 77.125 93.980469 76.929688 C 95.265625 76.734375 96.554688 76.570312 97.84375 76.4375 C 99.136719 76.304688 100.429688 76.203125 101.726562 76.136719 C 103.023438 76.066406 104.320312 76.03125 105.621094 76.027344 C 109.515625 76 113.382812 76.296875 117.226562 76.917969 C 117.804688 75.160156 118.453125 73.425781 119.164062 71.71875 C 119.878906 70.007812 120.65625 68.332031 121.503906 66.683594 C 122.347656 65.039062 123.257812 63.425781 124.226562 61.851562 C 125.199219 60.277344 126.230469 58.738281 127.324219 57.246094 C 128.414062 55.75 129.5625 54.300781 130.769531 52.894531 C 131.972656 51.492188 133.230469 50.136719 134.542969 48.828125 C 135.855469 47.523438 137.214844 46.269531 138.625 45.070312 C 140.035156 43.871094 141.488281 42.730469 142.988281 41.644531 C 144.488281 40.558594 146.027344 39.53125 147.609375 38.566406 C 149.1875 37.601562 150.800781 36.699219 152.453125 35.863281 C 154.101562 35.023438 155.785156 34.253906 157.496094 33.546875 C 159.207031 32.839844 160.941406 32.199219 162.703125 31.628906 C 164.464844 31.058594 166.242188 30.558594 168.042969 30.128906 C 169.84375 29.695312 171.660156 29.335938 173.488281 29.046875 C 175.316406 28.757812 177.152344 28.542969 178.996094 28.398438 C 180.84375 28.253906 182.691406 28.179688 184.542969 28.179688 C 186.394531 28.179688 188.242188 28.253906 190.085938 28.398438 C 191.933594 28.542969 193.769531 28.757812 195.597656 29.046875 C 197.425781 29.335938 199.238281 29.695312 201.039062 30.128906 C 202.839844 30.558594 204.621094 31.058594 206.382812 31.628906 C 208.144531 32.199219 209.878906 32.839844 211.589844 33.546875 C 213.300781 34.253906 214.980469 35.023438 216.632812 35.863281 C 218.28125 36.699219 219.898438 37.601562 221.476562 38.566406 C 223.054688 39.53125 224.597656 40.558594 226.09375 41.644531 C 227.59375 42.730469 229.050781 43.871094 230.457031 45.070312 C 231.867188 46.269531 233.230469 47.523438 234.539062 48.828125 C 235.851562 50.136719 237.109375 51.492188 238.316406 52.894531 C 239.523438 54.300781 240.671875 55.75 241.761719 57.246094 C 242.855469 58.738281 243.886719 60.277344 244.855469 61.851562 C 245.828125 63.425781 246.734375 65.039062 247.582031 66.683594 C 248.425781 68.332031 249.207031 70.007812 249.917969 71.71875 C 250.632812 73.425781 251.277344 75.160156 251.855469 76.917969 C 255.742188 76.296875 259.65625 76 263.589844 76.027344 C 265.847656 76.046875 268.101562 76.167969 270.347656 76.378906 C 272.59375 76.59375 274.828125 76.902344 277.046875 77.304688 C 279.269531 77.707031 281.46875 78.203125 283.648438 78.792969 C 285.824219 79.382812 287.976562 80.066406 290.097656 80.835938 C 292.214844 81.609375 294.300781 82.46875 296.347656 83.417969 C 298.394531 84.367188 300.398438 85.402344 302.359375 86.519531 C 304.320312 87.640625 306.230469 88.839844 308.085938 90.121094 C 309.945312 91.402344 311.746094 92.761719 313.488281 94.195312 C 315.230469 95.628906 316.910156 97.132812 318.527344 98.710938 C 320.140625 100.289062 321.6875 101.929688 323.160156 103.636719 C 324.636719 105.34375 326.039062 107.113281 327.363281 108.9375 C 328.691406 110.765625 329.9375 112.644531 331.101562 114.578125 C 332.269531 116.507812 333.351562 118.488281 334.347656 120.511719 C 335.347656 122.535156 336.257812 124.597656 337.082031 126.699219 C 337.902344 128.800781 338.636719 130.933594 339.277344 133.097656 C 339.921875 135.261719 340.46875 137.449219 340.925781 139.660156 C 341.382812 141.871094 341.746094 144.09375 342.011719 146.335938 C 342.28125 148.578125 342.453125 150.824219 342.53125 153.082031 C 342.605469 155.335938 342.589844 157.59375 342.472656 159.847656 C 342.359375 162.101562 342.148438 164.34375 341.84375 166.582031 C 341.539062 168.816406 341.140625 171.039062 340.648438 173.238281 C 340.152344 175.441406 339.566406 177.621094 338.890625 179.773438 C 338.210938 181.925781 337.441406 184.046875 336.585938 186.132812 C 335.726562 188.21875 334.78125 190.265625 333.75 192.273438 C 332.71875 194.28125 331.601562 196.242188 330.402344 198.152344 C 329.207031 200.066406 327.929688 201.925781 326.570312 203.730469 C 325.214844 205.535156 323.785156 207.277344 322.28125 208.960938 C 320.777344 210.644531 319.207031 212.257812 317.5625 213.808594 C 315.921875 215.359375 314.21875 216.835938 312.453125 218.238281 C 310.6875 219.644531 308.863281 220.972656 306.984375 222.222656 C 305.105469 223.472656 303.175781 224.640625 301.199219 225.726562 C 299.21875 226.8125 297.199219 227.8125 295.136719 228.726562 L 295.136719 283.0625 C 295.136719 313.09375 295.136719 328.109375 285.925781 337.527344 C 276.585938 346.816406 261.699219 346.816406 231.921875 346.816406 L 137.164062 346.816406 C 107.386719 346.816406 92.496094 346.816406 83.285156 337.527344 C 74.074219 328.109375 74.074219 313.097656 74.074219 283.0625 L 74.074219 228.726562 C 72.320312 227.945312 70.597656 227.105469 68.90625 226.199219 C 67.210938 225.296875 65.554688 224.332031 63.929688 223.308594 C 62.304688 222.285156 60.71875 221.203125 59.175781 220.0625 C 57.628906 218.925781 56.125 217.734375 54.664062 216.488281 C 53.207031 215.242188 51.792969 213.941406 50.425781 212.59375 C 49.058594 211.246094 47.742188 209.851562 46.476562 208.40625 C 45.210938 206.964844 44 205.476562 42.839844 203.945312 C 41.679688 202.417969 40.578125 200.847656 39.53125 199.234375 C 38.488281 197.625 37.5 195.980469 36.574219 194.300781 C 35.644531 192.617188 34.78125 190.90625 33.976562 189.164062 C 33.171875 187.417969 32.433594 185.648438 31.757812 183.851562 C 31.082031 182.054688 30.46875 180.238281 29.925781 178.398438 C 29.378906 176.554688 28.902344 174.699219 28.488281 172.824219 C 28.078125 170.949219 27.734375 169.058594 27.460938 167.160156 C 27.183594 165.261719 26.976562 163.351562 26.839844 161.4375 C 26.703125 159.523438 26.632812 157.605469 26.632812 155.6875 Z M 137.164062 271.101562 C 136.382812 271.109375 135.609375 271.191406 134.84375 271.351562 C 134.078125 271.507812 133.335938 271.738281 132.617188 272.042969 C 131.898438 272.34375 131.214844 272.714844 130.566406 273.152344 C 129.917969 273.589844 129.320312 274.085938 128.769531 274.640625 C 128.21875 275.195312 127.730469 275.800781 127.296875 276.449219 C 126.867188 277.101562 126.5 277.789062 126.203125 278.511719 C 125.90625 279.230469 125.679688 279.976562 125.53125 280.742188 C 125.378906 281.507812 125.300781 282.28125 125.300781 283.0625 C 125.300781 283.84375 125.378906 284.621094 125.53125 285.386719 C 125.679688 286.152344 125.90625 286.894531 126.203125 287.617188 C 126.5 288.339844 126.867188 289.027344 127.296875 289.679688 C 127.730469 290.328125 128.21875 290.933594 128.769531 291.488281 C 129.320312 292.042969 129.917969 292.539062 130.566406 292.976562 C 131.214844 293.414062 131.898438 293.78125 132.617188 294.085938 C 133.335938 294.390625 134.078125 294.621094 134.84375 294.777344 C 135.609375 294.9375 136.382812 295.019531 137.164062 295.027344 L 231.921875 295.027344 C 232.703125 295.019531 233.476562 294.9375 234.242188 294.777344 C 235.003906 294.621094 235.75 294.390625 236.46875 294.085938 C 237.1875 293.78125 237.871094 293.414062 238.519531 292.976562 C 239.164062 292.539062 239.765625 292.042969 240.316406 291.488281 C 240.863281 290.933594 241.355469 290.328125 241.789062 289.679688 C 242.21875 289.027344 242.585938 288.339844 242.882812 287.617188 C 243.179688 286.894531 243.402344 286.152344 243.554688 285.386719 C 243.707031 284.621094 243.78125 283.84375 243.78125 283.0625 C 243.78125 282.28125 243.707031 281.507812 243.554688 280.742188 C 243.402344 279.976562 243.179688 279.230469 242.882812 278.511719 C 242.585938 277.789062 242.21875 277.101562 241.789062 276.449219 C 241.355469 275.800781 240.863281 275.195312 240.316406 274.640625 C 239.765625 274.085938 239.164062 273.589844 238.519531 273.152344 C 237.871094 272.714844 237.1875 272.34375 236.46875 272.042969 C 235.75 271.738281 235.003906 271.507812 234.242188 271.351562 C 233.476562 271.191406 232.703125 271.109375 231.921875 271.101562 Z M 137.164062 271.101562 " fill-opacity="1" fill-rule="evenodd"/></g></svg>