<svg xmlns="http://www.w3.org/2000/svg" xmlns:xlink="http://www.w3.org/1999/xlink" width="500" zoomAndPan="magnify" viewBox="0 0 375 374.999991" height="500" preserveAspectRatio="xMidYMid meet" version="1.0"><defs><clipPath id="e0c9839098"><path d="M 324 70 L 351.929688 70 L 351.929688 91 L 324 91 Z M 324 70 " clip-rule="nonzero"/></clipPath><clipPath id="d29120d923"><path d="M 324 37 L 351.929688 37 L 351.929688 57 L 324 57 Z M 324 37 " clip-rule="nonzero"/></clipPath><clipPath id="0ed5c3f3f9"><path d="M 85.960938 70 L 295 70 L 295 215 L 85.960938 215 Z M 85.960938 70 " clip-rule="nonzero"/></clipPath><clipPath id="f6a3cad061"><path d="M 134 281 L 246 281 L 246 337.558594 L 134 337.558594 Z M 134 281 " clip-rule="nonzero"/></clipPath></defs><path fill="#41c6ff" d="M 263.207031 56.628906 C 264.332031 49.359375 267.195312 42.675781 271.351562 37.007812 L 290.972656 56.628906 Z M 263.207031 56.628906 " fill-opacity="1" fill-rule="nonzero"/><path fill="#41c6ff" d="M 314.628906 46.828125 L 314.628906 19.054688 C 321.886719 20.179688 328.570312 23.046875 334.25 27.207031 Z M 314.628906 46.828125 " fill-opacity="1" fill-rule="nonzero"/><path fill="#41c6ff" d="M 314.628906 108.058594 L 314.628906 80.285156 L 334.25 99.90625 C 328.570312 104.066406 321.886719 106.933594 314.628906 108.058594 Z M 314.628906 108.058594 " fill-opacity="1" fill-rule="nonzero"/><g clip-path="url(#e0c9839098)"><path fill="#41c6ff" d="M 352.203125 70.484375 C 351.078125 77.742188 348.210938 84.425781 344.050781 90.105469 L 324.429688 70.484375 Z M 352.203125 70.484375 " fill-opacity="1" fill-rule="nonzero"/></g><g clip-path="url(#d29120d923)"><path fill="#41c6ff" d="M 344.050781 37.007812 C 348.210938 42.6875 351.078125 49.371094 352.203125 56.628906 L 324.429688 56.628906 Z M 344.050781 37.007812 " fill-opacity="1" fill-rule="nonzero"/></g><g clip-path="url(#0ed5c3f3f9)"><path fill="#41c6ff" d="M 189.910156 214.5625 L 85.6875 70.484375 L 294.136719 70.484375 C 282.234375 86.9375 200.914062 199.351562 189.910156 214.5625 Z M 189.910156 214.5625 " fill-opacity="1" fill-rule="nonzero"/></g><path fill="#41c6ff" d="M 300.773438 108.066406 C 296.039062 107.335938 291.480469 105.863281 287.226562 103.679688 L 300.773438 84.957031 Z M 300.773438 108.066406 " fill-opacity="1" fill-rule="nonzero"/><path fill="#41c6ff" d="M 300.773438 19.0625 L 300.773438 46.828125 L 281.160156 27.21875 C 286.851562 23.054688 293.539062 20.191406 300.773438 19.0625 Z M 300.773438 19.0625 " fill-opacity="1" fill-rule="nonzero"/><g clip-path="url(#f6a3cad061)"><path fill="#41c6ff" d="M 141.410156 337.246094 L 238.414062 337.246094 C 241.3125 337.246094 243.90625 335.4375 244.910156 332.71875 C 245.917969 330 245.125 326.941406 242.921875 325.054688 L 194.421875 283.480469 C 191.824219 281.257812 187.996094 281.257812 185.402344 283.480469 L 136.898438 325.054688 C 134.699219 326.941406 133.90625 330 134.910156 332.71875 C 135.917969 335.4375 138.511719 337.246094 141.410156 337.246094 Z M 141.410156 337.246094 " fill-opacity="1" fill-rule="nonzero"/></g><path fill="#41c6ff" d="M 189.910156 295.671875 C 193.738281 295.671875 196.839844 292.570312 196.839844 288.742188 L 196.839844 205.597656 C 196.839844 201.769531 193.738281 198.667969 189.910156 198.667969 C 186.085938 198.667969 182.980469 201.769531 182.980469 205.597656 L 182.980469 288.742188 C 182.980469 292.570312 186.085938 295.671875 189.910156 295.671875 Z M 189.910156 295.671875 " fill-opacity="1" fill-rule="nonzero"/></svg>